<?xml version="1.0" encoding="utf-8" ?><svg xmlns="http://www.w3.org/2000/svg" xmlns:xlink="http://www.w3.org/1999/xlink" width="20" height="20"><path fill="#6B6B6B" transform="matrix(1 0 0 1 3.4 4.3)" d="M10.0086 0.95L8.9048 2.0541L9.0457 2.8525L9.8437 2.9933L11.3672 1.4696Q11.5831 1.2409 11.8975 1.2499Q12.2119 1.2408 12.4279 1.4695Q12.4872 1.5288 12.5319 1.5997Q12.5767 1.6706 12.6046 1.7497Q12.9527 2.7333 12.7428 3.7554Q12.5328 4.7775 11.8252 5.5443Q11.1175 6.311 10.1155 6.602Q9.3316 6.8296 8.5439 6.7148L3.2644 11.9951Q2.6545 12.7729 1.6592 12.8437Q0.6349 12.9165 -0.0911 12.1903Q-0.8171 11.4642 -0.7444 10.4399Q-0.6736 9.4445 0.1041 8.8346L5.3836 3.5543Q5.2688 2.7664 5.4964 1.9824Q5.7873 0.9803 6.554 0.2726Q7.3206 -0.4352 8.3426 -0.6452Q8.9736 -0.7749 9.59 -0.6917Q9.7299 -0.7549 9.898 -0.75Q10.2124 -0.759 10.4283 -0.5303L10.6283 -0.3303Q10.7837 -0.1782 10.8294 0.0345Q10.8797 0.2461 10.8049 0.4503Q10.7085 0.7497 10.4209 0.8769Q10.2183 0.9808 10.0086 0.95ZM6.937 2.4006Q7.0736 1.9298 7.3853 1.5673Q7.3841 1.5709 7.383 1.5744Q7.3266 1.7494 7.3597 1.9302L7.6597 3.6301Q7.6977 3.8645 7.8679 4.0301Q8.0335 4.2004 8.2679 4.2384L9.9676 4.5384Q10.1484 4.5716 10.3234 4.5151Q10.4992 4.461 10.6283 4.3301L11.183 3.7752Q11.0322 4.1918 10.7229 4.5269Q10.2983 4.9869 9.6972 5.1615Q9.0961 5.336 8.4913 5.175Q8.2974 5.1215 8.1036 5.1754Q7.9089 5.2259 7.7679 5.3694L2.1691 10.9691Q2.1503 10.9879 2.1328 11.008Q2.1154 11.0281 2.0994 11.0494Q1.8941 11.3232 1.5528 11.3475Q1.2116 11.3717 0.9696 11.1298Q0.7276 10.8877 0.7519 10.5463Q0.7761 10.2048 1.0499 9.9995Q1.0712 9.9835 1.0913 9.9661Q1.1114 9.9486 1.1302 9.9298L6.7291 4.3301Q6.8725 4.1891 6.923 3.9945Q6.9769 3.8007 6.9235 3.6068Q6.7624 3.0018 6.937 2.4006Z" fill-rule="evenodd"/></svg>